# xmcd
#
# Track frame offsets: 
#        150
#        23647
#        42073
#        61729
#        82503
#        104590
#        123933
#        143114
#        162067
#        180610
#
# Disc length: 2803 seconds
#
# Revision: 0
# Processed by: cddbd v1.5.2PL0 Copyright (c) Steve Scherf et al.
# Submitted via: ExactAudioCopy v0.95b3
#
DISCID=6d0af10a
DTITLE=Phyllis Hyman - Living All Alone
DYEAR=1986
DGENRE=R&B
TTITLE0=Living All Alone
TTITLE1=First Time Together
TTITLE2=If You Want Me
TTITLE3=Slow Dancing
TTITLE4=Old Friend
TTITLE5=You Just Don't Know
TTITLE6=Ain't You Had Enough Love
TTITLE7=Screaming At The Moon
TTITLE8=What You Won't Do For Love
TTITLE9=Run Jesse Run
EXTD=
EXTT0=
EXTT1=
EXTT2=
EXTT3=
EXTT4=
EXTT5=
EXTT6=
EXTT7=
EXTT8=
EXTT9=
PLAYORDER=
